<svg width="10" height="11" viewBox="0 0 10 11" fill="none" xmlns="http://www.w3.org/2000/svg">
<path d="M1.70374 1.31798L0.424693 2.61065C-0.138594 3.18282 -0.142398 4.11191 0.418353 4.68534L1.81754 6.11971C2.37797 6.69409 3.2909 6.69663 3.85387 6.12605L3.06647 5.30632C2.81573 5.38937 2.52854 5.28698 2.32979 5.08411L1.44001 4.1715C1.15947 3.88241 1.16074 3.41866 1.44318 3.13337L2.21029 2.35706C2.49272 2.07177 2.9476 2.07304 3.22877 2.36023L4.11919 3.27284C4.30748 3.46589 4.41082 3.78287 4.34457 4.02886L5.1326 4.83179C5.69715 4.26026 5.69969 3.3318 5.13894 2.7571L3.74102 1.32432C3.17964 0.748349 2.26766 0.746447 1.70374 1.31798Z" fill="white"/>
<path d="M6.8238 6.56997C7.06883 6.50182 7.38581 6.61086 7.57854 6.80834L8.41127 7.66072C8.69656 7.95299 8.69497 8.42593 8.40747 8.71693L7.62736 9.50876C7.34017 9.79912 6.87325 9.79722 6.58922 9.50496L5.7565 8.65194C5.55458 8.444 5.45187 8.1454 5.53809 7.88483L4.72343 7.06257C4.14937 7.64456 4.14652 8.59172 4.71709 9.17624L6.06746 10.5593C6.63899 11.1444 7.56808 11.1473 8.14342 10.5656L9.44529 9.24883C10.0187 8.66748 10.0216 7.72095 9.45099 7.13516L8.10062 5.75214C7.52846 5.16761 6.6 5.16508 6.0253 5.7458L6.8238 6.56997Z" fill="white"/>
<path d="M6.45332 7.46891C6.64891 7.27523 6.65081 6.95824 6.45586 6.76076L4.10508 4.39761C3.9095 4.20076 3.59314 4.19949 3.39693 4.39508C3.20198 4.58939 3.20071 4.90574 3.39502 5.10196L5.74517 7.46574C5.94012 7.66227 6.25647 7.66354 6.45332 7.46891Z" fill="white"/>
</svg>
