<svg width="7" height="9" viewBox="0 0 7 9" fill="none" xmlns="http://www.w3.org/2000/svg">
<path d="M0.078125 0.433594H2.74414C3.95898 0.433594 4.83984 0.607422 5.38672 0.955078C5.9375 1.29883 6.21289 1.84766 6.21289 2.60156C6.21289 3.11328 6.0918 3.5332 5.84961 3.86133C5.61133 4.18945 5.29297 4.38672 4.89453 4.45312V4.51172C5.4375 4.63281 5.82812 4.85938 6.06641 5.19141C6.30859 5.52344 6.42969 5.96484 6.42969 6.51562C6.42969 7.29688 6.14648 7.90625 5.58008 8.34375C5.01758 8.78125 4.25195 9 3.2832 9H0.078125V0.433594ZM1.89453 3.82617H2.94922C3.44141 3.82617 3.79688 3.75 4.01562 3.59766C4.23828 3.44531 4.34961 3.19336 4.34961 2.8418C4.34961 2.51367 4.22852 2.2793 3.98633 2.13867C3.74805 1.99414 3.36914 1.92188 2.84961 1.92188H1.89453V3.82617ZM1.89453 5.26758V7.5H3.07812C3.57812 7.5 3.94727 7.4043 4.18555 7.21289C4.42383 7.02148 4.54297 6.72852 4.54297 6.33398C4.54297 5.62305 4.03516 5.26758 3.01953 5.26758H1.89453Z" fill="white"/>
</svg>
