<svg width="15" height="18" viewBox="0 0 15 18" fill="none" xmlns="http://www.w3.org/2000/svg">
<path d="M0 16.3125C0 17.2441 0.719866 18 1.60714 18H13.3929C14.2801 18 15 17.2441 15 16.3125V6.75H0V16.3125ZM10.7143 9.42188C10.7143 9.18984 10.8951 9 11.1161 9H12.4554C12.6763 9 12.8571 9.18984 12.8571 9.42188V10.8281C12.8571 11.0602 12.6763 11.25 12.4554 11.25H11.1161C10.8951 11.25 10.7143 11.0602 10.7143 10.8281V9.42188ZM10.7143 13.9219C10.7143 13.6898 10.8951 13.5 11.1161 13.5H12.4554C12.6763 13.5 12.8571 13.6898 12.8571 13.9219V15.3281C12.8571 15.5602 12.6763 15.75 12.4554 15.75H11.1161C10.8951 15.75 10.7143 15.5602 10.7143 15.3281V13.9219ZM6.42857 9.42188C6.42857 9.18984 6.60938 9 6.83036 9H8.16964C8.39062 9 8.57143 9.18984 8.57143 9.42188V10.8281C8.57143 11.0602 8.39062 11.25 8.16964 11.25H6.83036C6.60938 11.25 6.42857 11.0602 6.42857 10.8281V9.42188ZM6.42857 13.9219C6.42857 13.6898 6.60938 13.5 6.83036 13.5H8.16964C8.39062 13.5 8.57143 13.6898 8.57143 13.9219V15.3281C8.57143 15.5602 8.39062 15.75 8.16964 15.75H6.83036C6.60938 15.75 6.42857 15.5602 6.42857 15.3281V13.9219ZM2.14286 9.42188C2.14286 9.18984 2.32366 9 2.54464 9H3.88393C4.10491 9 4.28571 9.18984 4.28571 9.42188V10.8281C4.28571 11.0602 4.10491 11.25 3.88393 11.25H2.54464C2.32366 11.25 2.14286 11.0602 2.14286 10.8281V9.42188ZM2.14286 13.9219C2.14286 13.6898 2.32366 13.5 2.54464 13.5H3.88393C4.10491 13.5 4.28571 13.6898 4.28571 13.9219V15.3281C4.28571 15.5602 4.10491 15.75 3.88393 15.75H2.54464C2.32366 15.75 2.14286 15.5602 2.14286 15.3281V13.9219ZM13.3929 2.25H11.7857V0.5625C11.7857 0.253125 11.5446 0 11.25 0H10.1786C9.88393 0 9.64286 0.253125 9.64286 0.5625V2.25H5.35714V0.5625C5.35714 0.253125 5.11607 0 4.82143 0H3.75C3.45536 0 3.21429 0.253125 3.21429 0.5625V2.25H1.60714C0.719866 2.25 0 3.00586 0 3.9375V5.625H15V3.9375C15 3.00586 14.2801 2.25 13.3929 2.25Z" fill="#3C4379"/>
</svg>
