<svg width="15" height="13" viewBox="0 0 15 13" fill="none" xmlns="http://www.w3.org/2000/svg">
<path d="M1.80967 10.7076L2.32236 10.1229C2.4244 10.0102 2.47773 9.86234 2.4709 9.71112V9.61507C2.4709 9.40179 2.3584 9.28571 2.13867 9.28571H0.46875C0.40659 9.28571 0.346976 9.31017 0.303022 9.35371C0.259068 9.39724 0.234375 9.45629 0.234375 9.51786V9.98214C0.234375 10.0437 0.259068 10.1028 0.303022 10.1463C0.346976 10.1898 0.40659 10.2143 0.46875 10.2143H1.1376C1.02394 10.3277 0.916372 10.4469 0.815332 10.5715L0.650977 10.7746C0.533789 10.9217 0.497168 11.0686 0.568945 11.2064L0.599707 11.2624C0.687598 11.4296 0.783984 11.4911 0.958594 11.4911H1.09717C1.3998 11.4911 1.56416 11.5619 1.56416 11.7548C1.56416 11.8918 1.44111 11.9934 1.14346 11.9934C0.98793 11.9922 0.83408 11.9614 0.690234 11.9028C0.500098 11.7902 0.346289 11.8013 0.233203 11.9934L0.0694336 12.2635C-0.0395508 12.4414 -0.0240234 12.6036 0.146484 12.7261C0.372363 12.8622 0.743555 13 1.23047 13C2.23125 13 2.65137 12.3398 2.65137 11.7197C2.65049 11.3025 2.38418 10.8562 1.80967 10.7076ZM14.5312 5.57143H5.15625C5.03193 5.57143 4.9127 5.62034 4.82479 5.70741C4.73689 5.79449 4.6875 5.91258 4.6875 6.03571V6.96429C4.6875 7.08742 4.73689 7.20551 4.82479 7.29259C4.9127 7.37966 5.03193 7.42857 5.15625 7.42857H14.5312C14.6556 7.42857 14.7748 7.37966 14.8627 7.29259C14.9506 7.20551 15 7.08742 15 6.96429V6.03571C15 5.91258 14.9506 5.79449 14.8627 5.70741C14.7748 5.62034 14.6556 5.57143 14.5312 5.57143ZM14.5312 0.928571H5.15625C5.03193 0.928571 4.9127 0.977487 4.82479 1.06456C4.73689 1.15163 4.6875 1.26972 4.6875 1.39286V2.32143C4.6875 2.44456 4.73689 2.56266 4.82479 2.64973C4.9127 2.7368 5.03193 2.78571 5.15625 2.78571H14.5312C14.6556 2.78571 14.7748 2.7368 14.8627 2.64973C14.9506 2.56266 15 2.44456 15 2.32143V1.39286C15 1.26972 14.9506 1.15163 14.8627 1.06456C14.7748 0.977487 14.6556 0.928571 14.5312 0.928571ZM14.5312 10.2143H5.15625C5.03193 10.2143 4.9127 10.2632 4.82479 10.3503C4.73689 10.4373 4.6875 10.5554 4.6875 10.6786V11.6071C4.6875 11.7303 4.73689 11.8484 4.82479 11.9354C4.9127 12.0225 5.03193 12.0714 5.15625 12.0714H14.5312C14.6556 12.0714 14.7748 12.0225 14.8627 11.9354C14.9506 11.8484 15 11.7303 15 11.6071V10.6786C15 10.5554 14.9506 10.4373 14.8627 10.3503C14.7748 10.2632 14.6556 10.2143 14.5312 10.2143ZM0.46875 3.71429H2.34375C2.40591 3.71429 2.46552 3.68983 2.50948 3.64629C2.55343 3.60276 2.57812 3.54371 2.57812 3.48214V3.01786C2.57812 2.95629 2.55343 2.89724 2.50948 2.85371C2.46552 2.81017 2.40591 2.78571 2.34375 2.78571H1.875V0.232143C1.875 0.170575 1.85031 0.111528 1.80635 0.0679931C1.7624 0.0244579 1.70279 0 1.64062 0H0.9375C0.894058 7.67946e-05 0.851492 0.0121111 0.814554 0.0347595C0.777616 0.0574078 0.747761 0.0897789 0.72832 0.128259L0.493945 0.592545C0.47608 0.627906 0.467631 0.667201 0.469398 0.706704C0.471165 0.746207 0.48309 0.784608 0.504042 0.818266C0.524994 0.851924 0.55428 0.879723 0.589121 0.899027C0.623961 0.918331 0.663203 0.928501 0.703125 0.928571H0.9375V2.78571H0.46875C0.40659 2.78571 0.346976 2.81017 0.303022 2.85371C0.259068 2.89724 0.234375 2.95629 0.234375 3.01786V3.48214C0.234375 3.54371 0.259068 3.60276 0.303022 3.64629C0.346976 3.68983 0.40659 3.71429 0.46875 3.71429ZM0.354199 8.35714H2.34375C2.40591 8.35714 2.46552 8.33268 2.50948 8.28915C2.55343 8.24561 2.57812 8.18657 2.57812 8.125V7.66071C2.57812 7.59915 2.55343 7.5401 2.50948 7.49656C2.46552 7.45303 2.40591 7.42857 2.34375 7.42857H1.21055C1.30693 7.12998 2.62676 6.88652 2.62676 5.7908C2.62676 4.94754 1.89434 4.64286 1.32393 4.64286C0.698144 4.64286 0.333691 4.93304 0.138574 5.18694C0.0105469 5.34915 0.0506836 5.5015 0.220605 5.63295L0.471973 5.83259C0.636328 5.96491 0.794238 5.90426 0.944238 5.76179C1.01823 5.68998 1.1178 5.64995 1.22139 5.65036C1.31895 5.65036 1.49326 5.69562 1.49326 5.90426C1.49414 6.27337 0 6.53801 0 7.90998V8.02605C0 8.24107 0.148828 8.35714 0.354199 8.35714Z" fill="#3C4379"/>
</svg>
