<svg width="15" height="11" viewBox="0 0 15 11" fill="none" xmlns="http://www.w3.org/2000/svg">
<path d="M13.75 0H1.25C0.559896 0 0 0.527902 0 1.17857V9.82143C0 10.4721 0.559896 11 1.25 11H13.75C14.4401 11 15 10.4721 15 9.82143V1.17857C15 0.527902 14.4401 0 13.75 0ZM4.58333 2.35714C5.5026 2.35714 6.25 3.06183 6.25 3.92857C6.25 4.79531 5.5026 5.5 4.58333 5.5C3.66406 5.5 2.91667 4.79531 2.91667 3.92857C2.91667 3.06183 3.66406 2.35714 4.58333 2.35714ZM7.5 8.17143C7.5 8.4317 7.23958 8.64286 6.91667 8.64286H2.25C1.92708 8.64286 1.66667 8.4317 1.66667 8.17143V7.7C1.66667 6.9192 2.45052 6.28571 3.41667 6.28571H3.54687C3.86719 6.41094 4.21615 6.48214 4.58333 6.48214C4.95052 6.48214 5.30208 6.41094 5.61979 6.28571H5.75C6.71615 6.28571 7.5 6.9192 7.5 7.7V8.17143ZM13.3333 6.875C13.3333 6.98304 13.2396 7.07143 13.125 7.07143H9.375C9.26042 7.07143 9.16667 6.98304 9.16667 6.875V6.48214C9.16667 6.37411 9.26042 6.28571 9.375 6.28571H13.125C13.2396 6.28571 13.3333 6.37411 13.3333 6.48214V6.875ZM13.3333 5.30357C13.3333 5.41161 13.2396 5.5 13.125 5.5H9.375C9.26042 5.5 9.16667 5.41161 9.16667 5.30357V4.91071C9.16667 4.80268 9.26042 4.71429 9.375 4.71429H13.125C13.2396 4.71429 13.3333 4.80268 13.3333 4.91071V5.30357ZM13.3333 3.73214C13.3333 3.84018 13.2396 3.92857 13.125 3.92857H9.375C9.26042 3.92857 9.16667 3.84018 9.16667 3.73214V3.33929C9.16667 3.23125 9.26042 3.14286 9.375 3.14286H13.125C13.2396 3.14286 13.3333 3.23125 13.3333 3.33929V3.73214Z" fill="#3C4379"/>
</svg>
