<svg width="15" height="11" viewBox="0 0 15 11" fill="none" xmlns="http://www.w3.org/2000/svg">
<path d="M2.25 4.71429C3.07734 4.71429 3.75 4.0096 3.75 3.14286C3.75 2.27612 3.07734 1.57143 2.25 1.57143C1.42266 1.57143 0.75 2.27612 0.75 3.14286C0.75 4.0096 1.42266 4.71429 2.25 4.71429ZM12.75 4.71429C13.5773 4.71429 14.25 4.0096 14.25 3.14286C14.25 2.27612 13.5773 1.57143 12.75 1.57143C11.9227 1.57143 11.25 2.27612 11.25 3.14286C11.25 4.0096 11.9227 4.71429 12.75 4.71429ZM13.5 5.5H12C11.5875 5.5 11.2148 5.67433 10.943 5.9567C11.8875 6.49933 12.5578 7.47902 12.7031 8.64286H14.25C14.6648 8.64286 15 8.29174 15 7.85714V7.07143C15 6.20469 14.3273 5.5 13.5 5.5ZM7.5 5.5C8.95078 5.5 10.125 4.26987 10.125 2.75C10.125 1.23013 8.95078 0 7.5 0C6.04922 0 4.875 1.23013 4.875 2.75C4.875 4.26987 6.04922 5.5 7.5 5.5ZM9.3 6.28571H9.10547C8.61797 6.53125 8.07656 6.67857 7.5 6.67857C6.92344 6.67857 6.38438 6.53125 5.89453 6.28571H5.7C4.20937 6.28571 3 7.55268 3 9.11429V9.82143C3 10.4721 3.50391 11 4.125 11H10.875C11.4961 11 12 10.4721 12 9.82143V9.11429C12 7.55268 10.7906 6.28571 9.3 6.28571ZM4.05703 5.9567C3.78516 5.67433 3.4125 5.5 3 5.5H1.5C0.672656 5.5 0 6.20469 0 7.07143V7.85714C0 8.29174 0.335156 8.64286 0.75 8.64286H2.29453C2.44219 7.47902 3.1125 6.49933 4.05703 5.9567Z" fill="#3C4379"/>
</svg>
