<svg width="9" height="10" viewBox="0 0 9 10" fill="none" xmlns="http://www.w3.org/2000/svg">
<path d="M8.42704 2.72844C8.42385 2.68773 8.38818 2.65625 8.34547 2.65625H6.87274V2.26562C6.87274 1.01633 5.80828 0 4.5 0C3.19172 0 2.12727 1.01633 2.12727 2.26562V2.65625H0.654536C0.611827 2.65625 0.576154 2.68773 0.572963 2.72844L0.000234579 9.91594C-0.00148361 9.93758 0.00628914 9.95898 0.0218346 9.97492C0.0372983 9.99094 0.059062 10 0.0818075 10H8.91819C8.94094 10 8.9627 9.99094 8.97817 9.975C8.99363 9.95906 9.00149 9.93766 8.99977 9.91602L8.42704 2.72844ZM2.78181 2.26562C2.78181 1.36102 3.55254 0.625 4.5 0.625C5.44746 0.625 6.21819 1.36102 6.21819 2.26562V2.65625H2.78181V2.26562ZM2.45454 4.84375C2.00331 4.84375 1.63636 4.49328 1.63636 4.0625C1.63636 3.7507 1.79999 3.46977 2.12727 3.34648V4.0625C2.12727 4.23484 2.27413 4.375 2.45454 4.375C2.63495 4.375 2.78181 4.23484 2.78181 4.0625V3.34695C3.10909 3.47023 3.27273 3.75328 3.27273 4.0625C3.27273 4.49328 2.90577 4.84375 2.45454 4.84375ZM6.54546 4.84375C6.09423 4.84375 5.72728 4.49328 5.72728 4.0625C5.72728 3.7507 5.89091 3.46977 6.21819 3.34648V4.0625C6.21819 4.23484 6.36505 4.375 6.54546 4.375C6.72587 4.375 6.87274 4.23484 6.87274 4.0625V3.34695C7.20001 3.47023 7.36365 3.75328 7.36365 4.0625C7.36365 4.49328 6.99669 4.84375 6.54546 4.84375Z" fill="#50589B"/>
</svg>
