<svg width="15" height="12" viewBox="0 0 15 12" fill="none" xmlns="http://www.w3.org/2000/svg">
<path d="M7.5 0C3.35781 0 0 3.45375 0 7.71429C0 9.12857 0.371094 10.4534 1.01719 11.5929C1.16328 11.8505 1.44167 12 1.73177 12H13.2682C13.5583 12 13.8367 11.8505 13.9828 11.5929C14.6289 10.4534 15 9.12857 15 7.71429C15 3.45375 11.6422 0 7.5 0ZM7.5 1.71429C7.88307 1.71429 8.19219 1.98563 8.28958 2.34777C8.26068 2.4083 8.22083 2.46107 8.19974 2.52643L7.95964 3.26759C7.82604 3.36107 7.67396 3.42857 7.50026 3.42857C7.0401 3.42857 6.66693 3.04473 6.66693 2.57143C6.66693 2.09812 7.03984 1.71429 7.5 1.71429ZM2.5 9.42857C2.03984 9.42857 1.66667 9.04473 1.66667 8.57143C1.66667 8.09813 2.03984 7.71429 2.5 7.71429C2.96016 7.71429 3.33333 8.09813 3.33333 8.57143C3.33333 9.04473 2.96016 9.42857 2.5 9.42857ZM3.75 5.14286C3.28984 5.14286 2.91667 4.75902 2.91667 4.28571C2.91667 3.81241 3.28984 3.42857 3.75 3.42857C4.21016 3.42857 4.58333 3.81241 4.58333 4.28571C4.58333 4.75902 4.21016 5.14286 3.75 5.14286ZM10.1763 3.2033L8.57917 8.13188C8.93568 8.44634 9.16667 8.90732 9.16667 9.42857C9.16667 9.7425 9.07865 10.0326 8.93542 10.2857H6.06458C5.92135 10.0326 5.83333 9.7425 5.83333 9.42857C5.83333 8.51946 6.52344 7.78313 7.39323 7.72527L8.99062 2.79643C9.09922 2.46 9.45234 2.27545 9.78125 2.39009C10.1086 2.50232 10.2852 2.86661 10.1763 3.2033ZM10.5581 4.73545L10.9622 3.48857C11.0526 3.45402 11.1479 3.42884 11.25 3.42884C11.7102 3.42884 12.0833 3.81268 12.0833 4.28598C12.0833 4.75929 11.7102 5.14313 11.25 5.14313C10.9536 5.14286 10.706 4.97491 10.5581 4.73545ZM12.5 9.42857C12.0398 9.42857 11.6667 9.04473 11.6667 8.57143C11.6667 8.09813 12.0398 7.71429 12.5 7.71429C12.9602 7.71429 13.3333 8.09813 13.3333 8.57143C13.3333 9.04473 12.9602 9.42857 12.5 9.42857Z" fill="#3C4379"/>
</svg>
