<svg width="29" height="33" viewBox="0 0 29 33" fill="none" xmlns="http://www.w3.org/2000/svg">
<path d="M17.0743 6L18 6.88064L13.6697 11L11 8.46047L11.9257 7.57983L13.6697 9.23876L17.0743 6Z" fill="white"/>
<path d="M21.4583 8.25C21.4583 11.9461 18.3818 15 14.5 15C10.6182 15 7.54167 11.9461 7.54167 8.25C7.54167 4.55387 10.6182 1.5 14.5 1.5C18.3818 1.5 21.4583 4.55387 21.4583 8.25ZM14.5 21.5357C16.4757 21.5357 18.3285 21.0929 19.998 20.3571H20.3C24.3102 20.3571 27.5 23.5215 27.5 27.3429V29.4643C27.5 30.5528 26.5834 31.5 25.375 31.5H3.625C2.41664 31.5 1.5 30.5528 1.5 29.4643V27.3429C1.5 23.5215 4.68982 20.3571 8.7 20.3571H9.00319C10.6761 21.092 12.5223 21.5357 14.5 21.5357Z" stroke="white" stroke-width="3"/>
</svg>
