<svg width="15" height="14" viewBox="0 0 15 14" fill="none" xmlns="http://www.w3.org/2000/svg">
<path d="M14.5833 7.875H12.5V10.5L11.6667 9.91758L10.8333 10.5V7.875H8.75C8.52083 7.875 8.33333 8.07187 8.33333 8.3125V13.5625C8.33333 13.8031 8.52083 14 8.75 14H14.5833C14.8125 14 15 13.8031 15 13.5625V8.3125C15 8.07187 14.8125 7.875 14.5833 7.875ZM4.58333 6.125H10.4167C10.6458 6.125 10.8333 5.92812 10.8333 5.6875V0.4375C10.8333 0.196875 10.6458 0 10.4167 0H8.33333V2.625L7.5 2.04258L6.66667 2.625V0H4.58333C4.35417 0 4.16667 0.196875 4.16667 0.4375V5.6875C4.16667 5.92812 4.35417 6.125 4.58333 6.125ZM6.25 7.875H4.16667V10.5L3.33333 9.91758L2.5 10.5V7.875H0.416667C0.1875 7.875 0 8.07187 0 8.3125V13.5625C0 13.8031 0.1875 14 0.416667 14H6.25C6.47917 14 6.66667 13.8031 6.66667 13.5625V8.3125C6.66667 8.07187 6.47917 7.875 6.25 7.875Z" fill="#3C4379"/>
</svg>
