<svg width="29" height="21" viewBox="0 0 29 21" fill="none" xmlns="http://www.w3.org/2000/svg">
<path d="M26.5833 0H2.41667C1.08247 0 0 1.00781 0 2.25V18.75C0 19.9922 1.08247 21 2.41667 21H26.5833C27.9175 21 29 19.9922 29 18.75V2.25C29 1.00781 27.9175 0 26.5833 0ZM8.86111 4.5C10.6384 4.5 12.0833 5.84531 12.0833 7.5C12.0833 9.15469 10.6384 10.5 8.86111 10.5C7.08385 10.5 5.63889 9.15469 5.63889 7.5C5.63889 5.84531 7.08385 4.5 8.86111 4.5ZM14.5 15.6C14.5 16.0969 13.9965 16.5 13.3722 16.5H4.35C3.72569 16.5 3.22222 16.0969 3.22222 15.6V14.7C3.22222 13.2094 4.73767 12 6.60556 12H6.85729C7.47656 12.2391 8.15122 12.375 8.86111 12.375C9.57101 12.375 10.2507 12.2391 10.8649 12H11.1167C12.9845 12 14.5 13.2094 14.5 14.7V15.6ZM25.7778 13.125C25.7778 13.3313 25.5965 13.5 25.375 13.5H18.125C17.9035 13.5 17.7222 13.3313 17.7222 13.125V12.375C17.7222 12.1687 17.9035 12 18.125 12H25.375C25.5965 12 25.7778 12.1687 25.7778 12.375V13.125ZM25.7778 10.125C25.7778 10.3313 25.5965 10.5 25.375 10.5H18.125C17.9035 10.5 17.7222 10.3313 17.7222 10.125V9.375C17.7222 9.16875 17.9035 9 18.125 9H25.375C25.5965 9 25.7778 9.16875 25.7778 9.375V10.125ZM25.7778 7.125C25.7778 7.33125 25.5965 7.5 25.375 7.5H18.125C17.9035 7.5 17.7222 7.33125 17.7222 7.125V6.375C17.7222 6.16875 17.9035 6 18.125 6H25.375C25.5965 6 25.7778 6.16875 25.7778 6.375V7.125Z" fill="#50589B"/>
</svg>
