<svg width="12" height="10" viewBox="0 0 12 10" fill="none" xmlns="http://www.w3.org/2000/svg">
<path d="M3.57613 1.05753H10.5807C10.8709 1.05753 11.1061 0.822313 11.1061 0.532182C11.1061 0.242051 10.8709 0.00683594 10.5807 0.00683594H3.57613C3.286 0.00683594 3.05078 0.242051 3.05078 0.532182C3.05078 0.822313 3.286 1.05753 3.57613 1.05753Z" fill="white"/>
<path d="M10.5807 4.20947H3.57613C3.286 4.20947 3.05078 4.44469 3.05078 4.73482C3.05078 5.02495 3.286 5.26016 3.57613 5.26016H10.5807C10.8709 5.26016 11.1061 5.02495 11.1061 4.73482C11.1061 4.44465 10.8709 4.20947 10.5807 4.20947Z" fill="white"/>
<path d="M10.5807 8.41235H3.57613C3.286 8.41235 3.05078 8.64757 3.05078 8.9377C3.05078 9.22783 3.286 9.46305 3.57613 9.46305H10.5807C10.8709 9.46305 11.1061 9.22783 11.1061 8.9377C11.1061 8.64757 10.8709 8.41235 10.5807 8.41235Z" fill="white"/>
<path d="M0.624453 0.899147V2.21475C0.624453 2.35744 0.740729 2.46503 0.894971 2.46503C1.04662 2.46503 1.16538 2.35509 1.16538 2.21475V0.247368C1.16538 0.108677 1.05166 0 0.906494 0C0.7788 0 0.714917 0.0856664 0.693939 0.113825C0.693063 0.115016 0.692188 0.116206 0.691312 0.117467L0.462751 0.4408C0.418377 0.489062 0.378906 0.566253 0.378906 0.640292C0.378871 0.781434 0.488634 0.896555 0.624453 0.899147Z" fill="white"/>
<path d="M0.268751 5.96747H1.29864C1.43344 5.96747 1.54313 5.84871 1.54313 5.70273C1.54313 5.5583 1.43348 5.44079 1.29864 5.44079H0.550826V5.43649C0.550826 5.35786 0.731125 5.23062 0.876015 5.12839C1.16422 4.92501 1.52289 4.67193 1.52289 4.23302C1.52289 3.81649 1.20012 3.50244 0.772067 3.50244C0.362192 3.50244 0.0531487 3.78417 0.0531487 4.15776C0.0531487 4.37455 0.194257 4.4515 0.315086 4.4515C0.48803 4.4515 0.591383 4.32272 0.591383 4.19828C0.591383 4.12091 0.611276 4.03209 0.766288 4.03209C0.975691 4.03209 0.981715 4.21765 0.981715 4.2388C0.981715 4.40558 0.765273 4.5615 0.55594 4.71228C0.297189 4.89864 0.00390626 5.10989 0.00390626 5.43656V5.71716C0.00387123 5.86688 0.140846 5.96747 0.268751 5.96747Z" fill="white"/>
<path d="M1.48662 7.68479C1.48662 7.25253 1.23138 7.00464 0.786373 7.00464C0.202889 7.00464 0.0487171 7.42134 0.0487171 7.64167C0.0487171 7.89818 0.239418 7.92589 0.321407 7.92589C0.481077 7.92589 0.588317 7.81861 0.588317 7.65894C0.588317 7.59751 0.610172 7.52701 0.780489 7.52701C0.902894 7.52701 0.952732 7.54466 0.952732 7.72202C0.952732 7.89531 0.915538 7.91419 0.769036 7.91419C0.628314 7.91419 0.522229 8.02525 0.522229 8.17248C0.522229 8.31814 0.62961 8.42801 0.771978 8.42801C0.965481 8.42801 1.00436 8.50702 1.00436 8.63454V8.68914C1.00436 8.90369 0.920686 8.94436 0.76627 8.94436C0.553224 8.94436 0.536658 8.83466 0.536658 8.80104C0.536658 8.67387 0.452358 8.54555 0.264004 8.54555C0.098695 8.54555 0 8.64855 0 8.82114C0 9.13551 0.269537 9.46963 0.769036 9.46963C1.25425 9.46963 1.54396 9.17785 1.54396 8.68914V8.63454C1.54396 8.43417 1.47986 8.26803 1.3596 8.14856C1.44197 8.02938 1.48662 7.87034 1.48662 7.68479Z" fill="white"/>
</svg>
