<svg width="14" height="14" viewBox="0 0 14 14" fill="none" xmlns="http://www.w3.org/2000/svg">
<path d="M13.1606 6.16041L7.716 6.17687V0.839443C7.716 0.374383 7.34161 0 6.87655 0C6.41164 0 6.03711 0.374383 6.03711 0.839443L6.05357 6.16056H0.839443C0.374383 6.16056 0 6.53494 0 7C0 7.46491 0.374383 7.83929 0.839443 7.83929H6.04534V13.1606C6.04534 13.6253 6.41972 14 6.88478 14C7.34984 14 7.72423 13.6253 7.72423 13.1606V7.83944H13.1606C13.6256 7.83944 14 7.46476 14 7C14 6.53479 13.6214 6.16041 13.1606 6.16041Z" fill="white"/>
</svg>
