<svg width="19" height="19" viewBox="0 0 19 19" fill="none" xmlns="http://www.w3.org/2000/svg">
<path d="M18.8324 18.0319L14.2149 13.4144C15.4535 11.9904 16.2035 10.1324 16.2035 8.10173C16.2035 3.63166 12.5676 0 8.10173 0C3.63166 0 0 3.63588 0 8.10173C0 12.5676 3.63588 16.2035 8.10173 16.2035C10.1324 16.2035 11.9904 15.4535 13.4144 14.2149L18.0319 18.8324C18.1415 18.942 18.2889 19.0009 18.4322 19.0009C18.5754 19.0009 18.7229 18.9462 18.8324 18.8324C19.0515 18.6133 19.0515 18.251 18.8324 18.0319ZM1.13332 8.10173C1.13332 4.25941 4.25941 1.13753 8.09752 1.13753C11.9398 1.13753 15.0617 4.26362 15.0617 8.10173C15.0617 11.9398 11.9398 15.0701 8.09752 15.0701C4.25941 15.0701 1.13332 11.944 1.13332 8.10173Z" fill="white"/>
</svg>
