<svg width="13" height="15" viewBox="0 0 13 15" fill="none" xmlns="http://www.w3.org/2000/svg">
<path d="M6.5 7.5C8.59557 7.5 10.2917 5.82254 10.2917 3.75C10.2917 1.67746 8.59557 0 6.5 0C4.40443 0 2.70833 1.67746 2.70833 3.75C2.70833 5.82254 4.40443 7.5 6.5 7.5ZM9.1 8.57143H8.81901C8.11484 8.90625 7.33281 9.10714 6.5 9.10714C5.66719 9.10714 4.88854 8.90625 4.18099 8.57143H3.9C1.74687 8.57143 0 10.2991 0 12.4286V13.3929C0 14.2801 0.727865 15 1.625 15H11.375C12.2721 15 13 14.2801 13 13.3929V12.4286C13 10.2991 11.2531 8.57143 9.1 8.57143Z" fill="#7032FF"/>
</svg>
