<svg width="15" height="12" viewBox="0 0 15 12" fill="none" xmlns="http://www.w3.org/2000/svg">
<path d="M14.6595 2.77969L13.0789 0.351562C12.9377 0.133594 12.6868 0 12.4189 0H2.58011C2.31222 0 2.06138 0.133594 1.92012 0.351562L0.339579 2.77969C-0.476265 4.03359 0.247036 5.77734 1.77157 5.97656C1.88116 5.99062 1.99319 5.99766 2.10521 5.99766C2.82608 5.99766 3.46414 5.69297 3.9025 5.22188C4.34087 5.69297 4.98137 5.99766 5.6998 5.99766C6.42066 5.99766 7.05872 5.69297 7.49709 5.22188C7.93545 5.69297 8.57595 5.99766 9.29438 5.99766C10.0152 5.99766 10.6533 5.69297 11.0917 5.22188C11.5325 5.69297 12.1705 5.99766 12.889 5.99766C13.0034 5.99766 13.113 5.99062 13.2226 5.97656C14.752 5.77969 15.4777 4.03594 14.6595 2.77969ZM12.8938 6.75C12.6503 6.75 12.4092 6.71484 12.1754 6.66094V9H2.82364V6.66094C2.58985 6.7125 2.34875 6.75 2.10521 6.75C1.95909 6.75 1.81053 6.74062 1.66685 6.72187C1.53047 6.70312 1.39652 6.67266 1.26745 6.6375V11.25C1.26745 11.6648 1.61571 12 2.04676 12H12.9572C13.3882 12 13.7365 11.6648 13.7365 11.25V6.6375C13.605 6.675 13.4735 6.70547 13.3371 6.72187C13.1885 6.74062 13.0424 6.75 12.8938 6.75Z" fill="#3C4379"/>
</svg>
