<svg width="10" height="11" viewBox="0 0 10 11" fill="none" xmlns="http://www.w3.org/2000/svg">
<path d="M8.05078 0.433594V5.97656C8.05078 6.60938 7.9082 7.16406 7.62305 7.64062C7.3418 8.11719 6.93359 8.48242 6.39844 8.73633C5.86328 8.99023 5.23047 9.11719 4.5 9.11719C3.39844 9.11719 2.54297 8.83594 1.93359 8.27344C1.32422 7.70703 1.01953 6.93359 1.01953 5.95312V0.433594H2.83008V5.67773C2.83008 6.33789 2.96289 6.82227 3.22852 7.13086C3.49414 7.43945 3.93359 7.59375 4.54688 7.59375C5.14062 7.59375 5.57031 7.43945 5.83594 7.13086C6.10547 6.81836 6.24023 6.33008 6.24023 5.66602V0.433594H8.05078Z" fill="white"/>
<path d="M0 10.2012H9.07031V10.7988H0V10.2012Z" fill="white"/>
</svg>
