<svg width="12" height="10" viewBox="0 0 12 10" fill="none" xmlns="http://www.w3.org/2000/svg">
<path d="M3.14893 1.1172H10.5514C10.858 1.1172 11.1065 0.868626 11.1065 0.562017C11.1065 0.255409 10.858 0.00683594 10.5514 0.00683594H3.14893C2.84232 0.00683594 2.59375 0.255409 2.59375 0.562017C2.59375 0.868626 2.84232 1.1172 3.14893 1.1172Z" fill="white"/>
<path d="M10.5514 4H3.14893C2.84232 4 2.59375 4.24857 2.59375 4.55518C2.59375 4.86179 2.84232 5.11036 3.14893 5.11036H10.5514C10.858 5.11036 11.1065 4.86179 11.1065 4.55518C11.1065 4.24854 10.858 4 10.5514 4Z" fill="white"/>
<path d="M10.5514 8H3.14893C2.84232 8 2.59375 8.24857 2.59375 8.55518C2.59375 8.86179 2.84232 9.11036 3.14893 9.11036H10.5514C10.858 9.11036 11.1065 8.86179 11.1065 8.55518C11.1065 8.24857 10.858 8 10.5514 8Z" fill="white"/>
<circle cx="0.5" cy="0.5" r="0.5" fill="white"/>
<circle cx="0.5" cy="4.5" r="0.5" fill="white"/>
<circle cx="0.5" cy="8.5" r="0.5" fill="white"/>
</svg>
