<svg width="9" height="10" viewBox="0 0 9 10" fill="none" xmlns="http://www.w3.org/2000/svg">
<path d="M4.5 5C5.95078 5 7.125 3.8817 7.125 2.5C7.125 1.1183 5.95078 0 4.5 0C3.04922 0 1.875 1.1183 1.875 2.5C1.875 3.8817 3.04922 5 4.5 5ZM6.3 5.71429H6.10547C5.61797 5.9375 5.07656 6.07143 4.5 6.07143C3.92344 6.07143 3.38438 5.9375 2.89453 5.71429H2.7C1.20937 5.71429 0 6.86607 0 8.28571V8.92857C0 9.52009 0.503906 10 1.125 10H7.875C8.49609 10 9 9.52009 9 8.92857V8.28571C9 6.86607 7.79062 5.71429 6.3 5.71429Z" fill="#50589B"/>
</svg>
